<svg width="180" height="160" viewBox="0 0 180 160" fill="none" xmlns="http://www.w3.org/2000/svg">
<path fill-rule="evenodd" clip-rule="evenodd" d="M107.485 50.0298L99.6694 54.5668C93.4604 58.1708 85.7964 58.1708 79.5874 54.5668L71.7704 50.0298C67.6244 47.6228 65.7694 42.6118 67.3494 38.0858L68.6924 34.2398C69.2534 32.6338 70.7674 31.5568 72.4674 31.5568H106.787C108.488 31.5568 110.003 32.6338 110.563 34.2398L111.906 38.0858C113.486 42.6118 111.631 47.6228 107.485 50.0298ZM157.849 -0.000183105L152.674 16.8868C149.851 26.0998 142.775 33.3958 133.653 36.4998L124.031 39.7728L120.183 32.1858C116.775 25.4668 109.88 21.2328 102.346 21.2328H89.6284H76.9094C69.3764 21.2328 62.4804 25.4668 59.0724 32.1858L55.2244 39.7728L45.6024 36.4998C36.4804 33.3958 29.4044 26.0998 26.5814 16.8868L21.4064 -0.000183105C19.1394 2.48982 16.2624 4.40582 13.0004 5.50382L20.2414 62.8348C23.0814 85.3148 33.4714 106.165 49.7114 121.968L75.6784 147.239C83.4434 154.796 95.8114 154.796 103.576 147.239L129.545 121.968C145.784 106.165 156.173 85.3148 159.013 62.8348L166.256 5.50282C162.993 4.40582 160.116 2.48982 157.849 -0.000183105Z" fill="#00004D"/>
</svg>
