<svg width="180" height="160" viewBox="0 0 180 160" fill="none" xmlns="http://www.w3.org/2000/svg">
<path fill-rule="evenodd" clip-rule="evenodd" d="M107.857 50.0302L100.04 54.5672C93.8324 58.1712 86.1684 58.1712 79.9604 54.5672L72.1424 50.0302C67.9964 47.6232 66.1414 42.6122 67.7214 38.0862L69.0644 34.2402C69.6254 32.6342 71.1394 31.5572 72.8404 31.5572H107.159C108.86 31.5572 110.375 32.6342 110.935 34.2402L112.278 38.0862C113.858 42.6122 112.003 47.6232 107.857 50.0302ZM158.221 0.000213623L153.046 16.8872C150.223 26.1002 143.147 33.3962 134.025 36.5002L124.403 39.7732L120.555 32.1862C117.147 25.4672 110.253 21.2332 102.718 21.2332H90.0004H77.2814C69.7474 21.2332 62.8524 25.4672 59.4444 32.1862L55.5964 39.7732L45.9744 36.5002C36.8524 33.3962 29.7764 26.1002 26.9534 16.8872L21.7784 0.000213623C19.8964 2.06821 17.5974 3.74721 15.0004 4.88321V42.5582C15.0004 83.9792 48.5784 117.557 90.0004 117.557C131.42 117.557 165 83.9792 165 42.5582V4.88321C162.402 3.74721 160.103 2.06821 158.221 0.000213623Z" fill="#00004D"/>
</svg>
