<svg width="180" height="160" viewBox="0 0 180 160" fill="none" xmlns="http://www.w3.org/2000/svg">
<path fill-rule="evenodd" clip-rule="evenodd" d="M107.567 50.0304L99.7495 54.5674C93.5415 58.1714 85.8775 58.1714 79.6695 54.5674L71.8515 50.0304C67.7055 47.6234 65.8505 42.6124 67.4305 38.0864L68.7735 34.2404C69.3345 32.6344 70.8485 31.5574 72.5495 31.5574H106.869C108.57 31.5574 110.085 32.6344 110.645 34.2404L111.988 38.0864C113.568 42.6124 111.713 47.6234 107.567 50.0304ZM165.245 5.10343C162.429 3.96943 159.942 2.20943 157.931 0.000427246L152.756 16.8874C149.933 26.1004 142.857 33.3964 133.735 36.5004L124.113 39.7734L120.265 32.1864C116.857 25.4674 109.963 21.2334 102.428 21.2334H89.7095H76.9905C69.4565 21.2334 62.5615 25.4674 59.1535 32.1864L55.3055 39.7734L45.6835 36.5004C36.5615 33.3964 29.4855 26.1004 26.6625 16.8874L21.4875 0.000427246C19.4765 2.20943 16.9895 3.96943 14.1725 5.10443L3.79153 54.4184C-1.61347 80.0864 10.2835 106.289 33.1645 119.116L79.9285 145.331C86.0045 148.737 93.4145 148.737 99.4885 145.331L146.254 119.116C169.134 106.289 181.031 80.0864 175.628 54.4184L165.245 5.10343Z" fill="#00004D"/>
</svg>
