<svg width="180" height="160" viewBox="0 0 180 160" fill="none" xmlns="http://www.w3.org/2000/svg">
<path fill-rule="evenodd" clip-rule="evenodd" d="M122.882 24.0229L108.386 26.4248L97.8644 21.6388C97.3294 21.3958 96.7554 21.2148 96.1504 21.1088C93.8424 20.7018 91.6044 21.4618 90.0254 22.9598C88.4454 21.4618 86.2074 20.7018 83.9004 21.1088C83.2944 21.2148 82.7204 21.3958 82.1854 21.6388L71.6634 26.4248L57.1674 24.0229C56.2164 23.8658 55.6144 25.0108 56.2844 25.7048L61.0484 30.6328C65.6664 35.4128 72.3574 37.5858 78.9034 36.4309L86.3694 35.1149C87.7964 34.8629 89.0474 34.2008 90.0254 33.2718C91.0024 34.2008 92.2534 34.8629 93.6804 35.1149L101.147 36.4309C107.693 37.5858 114.383 35.4128 119.001 30.6328L123.765 25.7048C124.435 25.0108 123.833 23.8658 122.882 24.0229Z" fill="#00004D"/>
</svg>
