<svg width="360" height="390" viewBox="0 0 360 390" fill="none" xmlns="http://www.w3.org/2000/svg">
<path fill-rule="evenodd" clip-rule="evenodd" d="M260 149.249V145C260 129.654 255.671 115.322 248.18 103.145C241.237 91.8599 231.567 82.4439 220.095 75.7839C208.304 68.9379 194.615 64.9999 180 64.9999C165.384 64.9999 151.696 68.9379 139.905 75.7839C128.433 82.4439 118.763 91.8599 111.82 103.145C104.329 115.322 100 129.654 100 145V149.249C104.172 149.879 107.919 151.784 110.828 154.572C120.042 145.324 127.462 134.29 132.51 122.023C146.638 129.662 162.812 134 180 134C197.188 134 213.362 129.662 227.49 122.023C232.537 134.29 239.959 145.324 249.172 154.572C252.081 151.784 255.828 149.879 260 149.249Z" fill="#00004D"/>
</svg>
