<svg width="360" height="390" viewBox="0 0 360 390" fill="none" xmlns="http://www.w3.org/2000/svg">
<path fill-rule="evenodd" clip-rule="evenodd" d="M260 149.249V145C260 129.654 255.672 115.322 248.18 103.145C241.237 91.8599 231.567 82.4439 220.095 75.7839C215.738 73.2549 211.122 71.1259 206.297 69.4419C208.655 65.1579 210 60.2359 210 54.9999C210 38.4319 196.568 24.9999 180 24.9999C163.432 24.9999 150 38.4319 150 54.9999C150 60.2359 151.345 65.1579 153.703 69.4419C148.878 71.1259 144.262 73.2549 139.905 75.7839C128.433 82.4439 118.763 91.8599 111.82 103.145C104.329 115.322 100 129.654 100 145V149.249C105.548 150.086 110.348 153.185 113.418 157.595L121.002 126.255C123.174 117.28 131.207 110.959 140.441 110.959H219.56C228.793 110.959 236.826 117.28 238.998 126.255L246.582 157.595C249.652 153.185 254.452 150.086 260 149.249Z" fill="#00004D"/>
</svg>
