<svg width="360" height="390" viewBox="0 0 360 390" fill="none" xmlns="http://www.w3.org/2000/svg">
<path fill-rule="evenodd" clip-rule="evenodd" d="M250 153.82C252.777 151.439 256.214 149.82 260 149.249V145C260 129.654 255.672 115.322 248.18 103.145C241.237 91.8602 231.567 82.4442 220.095 75.7842C208.304 68.9382 194.616 65.0002 180 65.0002C165.385 65.0002 151.696 68.9382 139.905 75.7842C128.433 82.4442 118.763 91.8602 111.82 103.145C104.329 115.322 100 129.654 100 145V149.249C103.786 149.82 107.223 151.439 110 153.82V145C110 118.065 125.222 94.6972 147.524 82.9922C156.261 90.4712 167.598 95.0002 180 95.0002C192.402 95.0002 203.739 90.4712 212.476 82.9932C234.778 94.6982 250 118.065 250 145V153.82Z" fill="#00004D"/>
</svg>
