<svg width="360" height="390" viewBox="0 0 360 390" fill="none" xmlns="http://www.w3.org/2000/svg">
<path fill-rule="evenodd" clip-rule="evenodd" d="M249.165 154.579C252.075 151.787 255.824 149.879 260 149.249V145C260 129.654 255.671 115.322 248.18 103.145C241.237 91.86 231.567 82.444 220.095 75.784C208.304 68.938 194.615 65 180 65C165.385 65 151.696 68.938 139.905 75.784C128.433 82.444 118.763 91.86 111.82 103.145C104.328 115.322 100 129.654 100 145V149.249C104.176 149.879 107.925 151.787 110.835 154.579V154.145C110.835 144.232 115.254 134.834 122.889 128.511C133.294 119.892 147.877 118.418 159.796 124.78C172.422 131.519 187.578 131.519 200.204 124.78C212.123 118.418 226.706 119.892 237.111 128.511C244.746 134.834 249.165 144.232 249.165 154.145V154.579Z" fill="#00004D"/>
</svg>
