<svg width="360" height="390" viewBox="0 0 360 390" fill="none" xmlns="http://www.w3.org/2000/svg">
<path fill-rule="evenodd" clip-rule="evenodd" d="M249.165 154.579C252.075 151.787 255.824 149.879 260 149.249V145V109.722C260 94.5698 251.439 80.7198 237.889 73.9438L188.944 49.4728C183.313 46.6568 176.686 46.6568 171.056 49.4728L122.111 73.9438C108.561 80.7198 100 94.5698 100 109.722V149.249C104.176 149.879 107.925 151.787 110.835 154.579V154.145C110.835 144.232 115.254 134.834 122.889 128.511C133.294 119.892 147.877 118.418 159.796 124.78C172.422 131.519 187.578 131.519 200.204 124.78C212.123 118.418 226.706 119.892 237.111 128.511C244.746 134.834 249.165 144.232 249.165 154.145V154.579Z" fill="#00004D"/>
</svg>
