<svg width="360" height="390" viewBox="0 0 360 390" fill="none" xmlns="http://www.w3.org/2000/svg">
<path fill-rule="evenodd" clip-rule="evenodd" d="M260 149.249V145C260 138.843 259.292 132.853 257.974 127.095C267.781 119.77 273.594 111.885 273.594 106.116C273.594 91.261 238.539 65 195.297 65H180C165.385 65 151.696 68.938 139.905 75.784C128.433 82.444 118.763 91.86 111.82 103.145C104.328 115.322 100 129.654 100 145V149.249C105.7 150.109 110.613 153.354 113.67 157.958L124.048 123.159C136.385 137.358 163.637 147.232 195.297 147.232C212.014 147.232 227.494 143.197 240.211 137.438L246.33 157.958C249.387 153.354 254.3 150.109 260 149.249Z" fill="#00004D"/>
</svg>
