<svg width="360" height="390" viewBox="0 0 360 390" fill="none" xmlns="http://www.w3.org/2000/svg">
<path fill-rule="evenodd" clip-rule="evenodd" d="M252.25 141.695V152.153C255.357 150.167 259.039 149 263 149C263.676 149 264.342 149.036 265 149.101V141.906C265 125.601 260.4 110.374 252.441 97.4348C245.064 85.4448 234.791 75.4398 222.601 68.3638C210.072 61.0908 195.529 56.9058 180 56.9058C164.471 56.9058 149.928 61.0908 137.399 68.3638C125.21 75.4398 114.936 85.4448 107.559 97.4348C99.6 110.374 95 125.6 95 141.906V149.101C95.658 149.036 96.324 149 97 149C100.961 149 104.643 150.166 107.75 152.153V141.757C120.61 138.577 133.799 136.23 147.254 134.769L160.869 110.002V133.603C167.195 133.206 173.573 133 180 133C204.819 133 228.935 136.013 252 141.695H252.25Z" fill="#00004D"/>
</svg>
