<svg width="80" height="60" viewBox="0 0 80 60" fill="none" xmlns="http://www.w3.org/2000/svg">
<path fill-rule="evenodd" clip-rule="evenodd" d="M65 9.49939C65 23.3074 53.807 34.4994 40 34.4994C26.193 34.4994 15 23.3074 15 9.49939H65Z" fill="#AE1328"/>
<path fill-rule="evenodd" clip-rule="evenodd" d="M53.9912 30.2201C50.3842 26.6861 45.4492 24.4991 40.0002 24.4991C34.5512 24.4991 29.6162 26.6861 26.0092 30.2201C30.0022 32.9221 34.8162 34.4991 40.0002 34.4991C45.1832 34.4991 49.9992 32.9221 53.9912 30.2201Z" fill="#FB344F"/>
<path fill-rule="evenodd" clip-rule="evenodd" d="M55 17.4994H25C22.238 17.4994 20 15.2614 20 12.4994V9.49939H60V12.4994C60 15.2614 57.762 17.4994 55 17.4994Z" fill="white"/>
</svg>
