<svg width="80" height="60" viewBox="0 0 80 60" fill="none" xmlns="http://www.w3.org/2000/svg">
<path fill-rule="evenodd" clip-rule="evenodd" d="M65.0001 9.49982C65.0001 23.3078 53.8071 34.4998 40.0001 34.4998C26.1931 34.4998 15.0001 23.3078 15.0001 9.49982H65.0001Z" fill="#AE1328"/>
<path fill-rule="evenodd" clip-rule="evenodd" d="M55.0001 17.4998H25.0001C22.2381 17.4998 20.0001 15.2618 20.0001 12.4998V9.49982H60.0001V12.4998C60.0001 15.2618 57.7621 17.4998 55.0001 17.4998Z" fill="white"/>
<path fill-rule="evenodd" clip-rule="evenodd" d="M40.0001 50.2937C32.2721 50.2937 26.0091 44.0297 26.0091 36.3027V30.2207C26.0091 25.8027 29.5911 22.2207 34.0091 22.2207H45.9911C50.4101 22.2207 53.9911 25.8027 53.9911 30.2207V36.3027C53.9911 44.0297 47.7281 50.2937 40.0001 50.2937Z" fill="#FB344F"/>
</svg>
