<svg width="360" height="390" viewBox="0 0 360 390" fill="none" xmlns="http://www.w3.org/2000/svg">
<path fill-rule="evenodd" clip-rule="evenodd" d="M156.361 114.441C145.954 132.222 130.2 146.473 111.32 155.054C107.983 151.628 103.428 149.412 98.3548 149.071L100.982 132.44V132.439C102.656 121.838 106.415 111.932 111.82 103.145C116.812 95.0326 123.218 87.8926 130.685 82.0406C133.604 79.7526 136.681 77.6566 139.905 75.7836C148.957 70.5296 159.13 66.9956 169.98 65.6336C173.262 65.2216 176.605 64.9996 180 64.9996C194.615 64.9996 208.304 68.9386 220.095 75.7836C231.568 82.4446 241.237 91.8606 248.18 103.145C253.585 111.932 257.344 121.838 259.018 132.44L261.642 149.051C256.339 149.41 251.613 151.843 248.241 155.536C212.705 152.782 180.641 137.653 156.361 114.441ZM135 244.975C117.373 231.718 105.769 210.882 105.058 187.296C102.591 188.384 99.869 188.999 97 188.999C95.322 188.999 93.703 188.771 92.146 188.381L80 265.276H135V244.975ZM263 189C260.131 189 257.408 188.385 254.941 187.297C254.23 210.883 242.627 231.719 225 244.975V265.276H280L267.854 188.382C266.297 188.771 264.678 189 263 189Z" fill="#00004D"/>
</svg>
