<svg width="360" height="390" viewBox="0 0 360 390" fill="none" xmlns="http://www.w3.org/2000/svg">
<path fill-rule="evenodd" clip-rule="evenodd" d="M111.32 155.054C109.527 153.214 107.387 151.719 105 150.676C102.549 149.604 99.847 149 97 149C96.325 149 95.658 149.036 95 149.102V145C95 98.0556 133.056 59.9996 180 59.9996C226.944 59.9996 265 98.0556 265 145V149.102C264.342 149.036 263.675 149 263 149C260.153 149 257.451 149.604 255 150.676C252.411 151.808 250.12 153.479 248.241 155.537C212.705 152.781 180.641 137.654 156.36 114.441C145.953 132.222 130.199 146.473 111.32 155.054ZM254.941 187.297C254.23 210.891 242.643 231.748 225 245.001V275L265 286.206V188.9C264.341 188.965 263.674 189 263 189C260.13 189 257.408 188.385 254.941 187.297ZM135 245.001C117.356 231.748 105.77 210.891 105.058 187.297C102.591 188.385 99.869 189 97 189C96.325 189 95.658 188.965 95 188.899V286.206L135 275V245.001Z" fill="#00004D"/>
</svg>
