<svg width="360" height="390" viewBox="0 0 360 390" fill="none" xmlns="http://www.w3.org/2000/svg">
<path fill-rule="evenodd" clip-rule="evenodd" d="M261.642 149.069C255.66 149.472 250.41 152.497 247.017 157.015L243.773 140.795H207.954L198.121 111.98V140.795H116.228L112.984 157.015C109.591 152.497 104.341 149.472 98.3586 149.069V149.051L100.983 132.44C102.657 121.838 106.415 111.932 111.821 103.145C118.763 91.8605 128.433 82.4445 139.906 75.7845C151.697 68.9385 165.384 64.9995 180 64.9995C194.616 64.9995 208.304 68.9385 220.095 75.7845C231.568 82.4445 241.238 91.8605 248.18 103.145C253.585 111.932 257.344 121.838 259.018 132.44L261.642 149.051V149.069ZM135 244.975C117.373 231.718 105.77 210.882 105.058 187.296C102.591 188.384 99.869 188.999 97 188.999C95.322 188.999 93.702 188.771 92.146 188.381L80 265.276H135V244.975ZM263 189C260.131 189 257.408 188.385 254.941 187.297C254.23 210.883 242.627 231.719 225 244.975V265.276H280L267.854 188.382C266.297 188.771 264.678 189 263 189Z" fill="#00004D"/>
</svg>
