<svg width="360" height="390" viewBox="0 0 360 390" fill="none" xmlns="http://www.w3.org/2000/svg">
<path fill-rule="evenodd" clip-rule="evenodd" d="M247.956 155.851L247.773 155.796L243.773 135.795H207.954L198.122 106.98V135.795H116.227L112.227 155.796L112.036 155.842C108.37 151.656 103.002 149 97.0005 149C96.3255 149 95.6585 149.036 95.0005 149.102V145C95.0005 98.0558 133.056 59.9998 180.001 59.9998C226.945 59.9998 265.001 98.0558 265.001 145V149.102C264.342 149.036 263.674 149 263.001 149C256.995 149 251.622 151.66 247.956 155.851ZM254.941 187.297C254.23 210.891 242.643 231.748 225 245.001V275L265 286.206V188.9C264.341 188.965 263.674 189 263 189C260.13 189 257.408 188.385 254.941 187.297ZM135 245.001C117.356 231.748 105.77 210.891 105.058 187.297C102.591 188.385 99.869 189 97 189C96.325 189 95.658 188.965 95 188.899V286.206L135 275V245.001Z" fill="#00004D"/>
</svg>
