<svg width="360" height="390" viewBox="0 0 360 390" fill="none" xmlns="http://www.w3.org/2000/svg">
<path fill-rule="evenodd" clip-rule="evenodd" d="M219.698 69.8398C219.889 68.2518 220 66.6398 220 64.9998C220 42.9088 202.092 24.9998 180 24.9998C157.908 24.9998 140 42.9088 140 64.9998C140 66.6398 140.11 68.2518 140.302 69.8398C113.363 84.0988 95.0003 112.399 95.0003 145C95.0003 146.375 95.0453 147.738 95.1143 149.096C95.7363 149.037 96.3633 149 97.0003 149C102.618 149 107.687 151.324 111.32 155.054C130.199 146.473 145.953 132.222 156.361 114.441C180.64 137.653 212.705 152.781 248.241 155.536C251.898 151.529 257.147 149 263 149C263.636 149 264.263 149.037 264.884 149.096C264.953 147.738 265 146.375 265 145C265 112.399 246.636 84.0988 219.698 69.8398Z" fill="#00004D"/>
</svg>
