<svg width="360" height="390" viewBox="0 0 360 390" fill="none" xmlns="http://www.w3.org/2000/svg">
<path fill-rule="evenodd" clip-rule="evenodd" d="M212.441 66.4147C213.675 62.8357 214.355 58.9987 214.355 55.0007C214.355 35.6707 198.685 20.0007 179.355 20.0007C160.025 20.0007 144.355 35.6707 144.355 55.0007C144.355 59.2087 145.099 63.2427 146.461 66.9797C116.114 80.2357 95.0004 110.892 95.0004 146.065V149.1C95.6584 149.034 96.3244 148.998 97.0004 148.998C103.001 148.998 108.37 151.654 112.036 155.84L112.227 155.794L118.227 119.793L123.712 133.508C125.232 137.304 128.909 139.793 132.998 139.793H227.002C231.09 139.793 234.767 137.304 236.287 133.508L241.772 119.793L247.772 155.794L247.956 155.849C251.622 151.658 256.994 148.998 263 148.998C263.675 148.998 264.341 149.034 265 149.1V144.998C265 109.544 243.291 79.1637 212.441 66.4147Z" fill="#00004D"/>
</svg>
