<svg width="360" height="390" viewBox="0 0 360 390" fill="none" xmlns="http://www.w3.org/2000/svg">
<path fill-rule="evenodd" clip-rule="evenodd" d="M95 145C95 98.0558 133.056 59.9998 180 59.9998C226.944 59.9998 265 98.0558 265 145C265 146.375 264.955 147.738 264.886 149.096C264.264 149.037 263.637 149 263 149C257.382 149 252.313 151.324 248.68 155.054C229.801 146.473 214.047 132.222 203.639 114.44C179.359 137.652 147.295 152.781 111.759 155.536C108.102 151.529 102.853 149 97 149C96.364 149 95.736 149.037 95.116 149.096C95.047 147.738 95 146.375 95 145ZM97.0002 188.999C99.8602 188.999 102.575 188.389 105.035 187.307C105.732 210.345 116.832 230.756 133.782 244.043C125.168 259.108 108.955 269.268 90.3592 269.268C62.7452 269.268 40.3592 246.882 40.3592 219.268C40.3592 196.244 55.9262 176.868 77.1052 171.057C78.1352 181.136 86.6482 188.999 97.0002 188.999Z" fill="#00004D"/>
</svg>
