<svg width="360" height="390" viewBox="0 0 360 390" fill="none" xmlns="http://www.w3.org/2000/svg">
<path fill-rule="evenodd" clip-rule="evenodd" d="M274.355 70.0007C274.355 53.4317 260.923 40.0007 244.355 40.0007C227.787 40.0007 214.355 53.4317 214.355 70.0007C214.355 70.9447 214.404 71.8777 214.49 72.7997C204.046 67.8017 192.351 64.9977 180 64.9977C167.105 64.9977 154.934 68.0667 144.147 73.4857C144.28 72.3417 144.355 71.1807 144.355 70.0007C144.355 53.4317 130.923 40.0007 114.355 40.0007C97.7875 40.0007 84.3555 53.4317 84.3555 70.0007C84.3555 86.4037 97.5225 99.7237 113.863 99.9877C105.118 112.813 100 128.306 100 144.998V149.247C104.777 149.968 108.995 152.367 112.036 155.84L112.227 155.793L116.227 135.793H198.121V106.978L207.953 135.793H243.772L247.772 155.793L247.956 155.849C250.998 152.371 255.218 149.969 260 149.247V144.998C260 128.287 254.869 112.778 246.107 99.9447C261.859 99.0377 274.355 85.9797 274.355 70.0007Z" fill="#00004D"/>
</svg>
