<svg width="360" height="390" viewBox="0 0 360 390" fill="none" xmlns="http://www.w3.org/2000/svg">
<path fill-rule="evenodd" clip-rule="evenodd" d="M180 28.9998C113.726 28.9998 60 82.7268 60 149C60 199.359 91.024 242.466 135 260.269V245.001C117.356 231.748 105.77 210.891 105.059 187.297C102.592 188.385 99.869 189 97 189C85.954 189 77 180.046 77 169C77 157.955 85.954 149 97 149C98.068 149 99.108 149.111 100.131 149.274C101.494 149.489 102.807 149.847 104.063 150.32C104.247 150.391 104.434 150.455 104.615 150.529C106.937 151.485 109.042 152.86 110.828 154.572C120.041 145.324 127.463 134.29 132.51 122.023C146.638 129.662 162.813 134 180 134C197.187 134 213.362 129.662 227.49 122.023C232.537 134.29 239.959 145.324 249.172 154.572C250.958 152.86 253.063 151.484 255.387 150.529C255.566 150.455 255.751 150.392 255.934 150.322C257.191 149.848 258.506 149.489 259.87 149.274C260.893 149.111 261.932 149 263 149C274.045 149 283 157.955 283 169C283 180.046 274.045 189 263 189C260.131 189 257.408 188.385 254.941 187.297C254.23 210.891 242.643 231.748 225 245.001V260.269C268.975 242.466 300 199.359 300 149C300 82.7268 246.273 28.9998 180 28.9998Z" fill="#00004D"/>
</svg>
