<svg width="360" height="390" viewBox="0 0 360 390" fill="none" xmlns="http://www.w3.org/2000/svg">
<path fill-rule="evenodd" clip-rule="evenodd" d="M265 149.102C264.342 149.036 263.676 149 263 149C256.153 149 250.115 152.445 246.51 157.691C236.271 153.821 228.704 144.511 227.338 133.282C224.105 135.015 220.412 136 216.488 136C207.109 136 199.047 130.383 195.467 122.332C191.435 126.152 185.993 128.5 180 128.5C174.007 128.5 168.565 126.152 164.533 122.332C160.953 130.383 152.891 136 143.512 136C139.588 136 135.895 135.015 132.662 133.282C131.296 144.511 123.729 153.821 113.49 157.691C109.885 152.445 103.847 149 97 149C96.324 149 95.658 149.036 95 149.102V145C95 98.056 133.056 60 180 60C226.944 60 265 98.056 265 145V149.102ZM254.942 187.297C254.23 210.891 242.643 231.748 225 245.001V275L239.98 279.197C245 275.564 248.279 269.671 248.279 263C248.279 262.837 248.268 262.677 248.257 262.517V262.517L248.257 262.516C248.25 262.416 248.244 262.317 248.239 262.216C250.75 263.352 253.529 264 256.464 264C267.51 264 276.464 255.046 276.464 244C276.464 239.805 275.168 235.914 272.96 232.698C282.863 229.373 290 220.024 290 209C290 198.374 283.367 189.303 274.018 185.684C270.858 187.776 267.074 189 263 189C260.13 189 257.408 188.385 254.942 187.297ZM135 245.001C117.356 231.747 105.77 210.891 105.059 187.297C102.592 188.385 99.869 189 97 189C92.926 189 89.143 187.775 85.981 185.684C76.633 189.303 70 198.374 70 209C70 220.023 77.137 229.373 87.04 232.698C84.832 235.914 83.535 239.805 83.535 244C83.535 255.046 92.489 264 103.535 264C106.471 264 109.249 263.352 111.761 262.216C111.757 262.317 111.75 262.417 111.743 262.517L111.743 262.517L111.743 262.517C111.732 262.677 111.721 262.837 111.721 263C111.721 269.671 115 275.563 120.02 279.197L135 275V245.001Z" fill="#00004D"/>
</svg>
