<svg width="360" height="390" viewBox="0 0 360 390" fill="none" xmlns="http://www.w3.org/2000/svg">
<path fill-rule="evenodd" clip-rule="evenodd" d="M156.36 114.441C145.953 132.222 130.199 146.473 111.32 155.054C107.982 151.628 103.427 149.412 98.3553 149.071L100.982 132.44V132.439C102.656 121.838 106.415 111.932 111.82 103.145C116.811 95.0325 123.217 87.8925 130.684 82.0405C133.604 79.7525 136.68 77.6565 139.905 75.7835C148.957 70.5295 159.13 66.9955 169.979 65.6335C173.262 65.2215 176.604 64.9995 180 64.9995C194.615 64.9995 208.303 68.9385 220.094 75.7835C231.567 82.4445 241.237 91.8605 248.179 103.145C253.585 111.932 257.343 121.838 259.017 132.44L261.641 149.051C256.339 149.41 251.613 151.843 248.241 155.536C212.705 152.782 180.64 137.653 156.36 114.441ZM93.2637 286.692L135 275V244.974C117.373 231.718 105.77 210.882 105.059 187.296C102.592 188.384 99.8687 189 96.9997 189C95.2067 189 93.4787 188.742 91.8257 188.299L75.0767 294.328C80.7657 291.068 86.8637 288.485 93.2637 286.692ZM263 189C260.131 189 257.408 188.385 254.941 187.297C254.23 210.883 242.627 231.72 225 244.976V275L266.736 286.692C273.137 288.485 279.234 291.068 284.923 294.328L268.175 188.3C266.521 188.742 264.793 189 263 189Z" fill="#00004D"/>
</svg>
