<svg width="360" height="390" viewBox="0 0 360 390" fill="none" xmlns="http://www.w3.org/2000/svg">
<path fill-rule="evenodd" clip-rule="evenodd" d="M261.642 149.069C255.66 149.472 250.41 152.497 247.016 157.015L243.773 140.795H207.953L198.121 111.98V140.795H116.228L112.984 157.015C109.59 152.497 104.341 149.472 98.3576 149.069V149.051L100.983 132.44C102.657 121.838 106.415 111.932 111.821 103.145C118.763 91.8605 128.433 82.4445 139.905 75.7845C151.697 68.9385 165.385 64.9995 180 64.9995C194.616 64.9995 208.304 68.9385 220.095 75.7845C231.568 82.4445 241.238 91.8605 248.18 103.145C253.584 111.932 257.344 121.838 259.018 132.44L261.642 149.051V149.069ZM93.2627 286.692L135 275V244.974C117.373 231.718 105.769 210.882 105.058 187.296C102.591 188.384 99.8687 189 96.9997 189C95.2067 189 93.4787 188.742 91.8257 188.299L75.0767 294.328C80.7657 291.068 86.8627 288.485 93.2627 286.692ZM263 189C260.131 189 257.408 188.385 254.941 187.297C254.23 210.883 242.627 231.72 225 244.976V275L266.736 286.692C273.137 288.485 279.234 291.068 284.923 294.328L268.175 188.3C266.521 188.742 264.793 189 263 189Z" fill="#00004D"/>
</svg>
