<svg width="360" height="390" viewBox="0 0 360 390" fill="none" xmlns="http://www.w3.org/2000/svg">
<path fill-rule="evenodd" clip-rule="evenodd" d="M263 149C265.114 149 267.15 149.334 269.062 149.941C269.904 148.308 270.395 146.462 270.395 144.494C270.395 140.031 267.952 136.145 264.336 134.078C269.679 130.956 273.278 125.175 273.278 118.541C273.278 109.518 266.631 102.066 257.972 100.764C259.347 98.31 260.139 95.484 260.139 92.471C260.139 83.082 252.527 75.471 243.139 75.471C239.641 75.471 236.392 76.53 233.689 78.341C233.691 78.221 233.698 78.103 233.698 77.982C233.698 65.832 223.848 55.982 211.698 55.982C206.43 55.982 201.596 57.837 197.807 60.926C194.498 54.446 187.775 50 180 50C172.225 50 165.502 54.446 162.193 60.926C158.404 57.837 153.57 55.982 148.302 55.982C136.152 55.982 126.302 65.832 126.302 77.982C126.302 78.103 126.309 78.221 126.311 78.341C123.608 76.53 120.359 75.471 116.861 75.471C107.473 75.471 99.861 83.082 99.861 92.471C99.861 95.484 100.653 98.31 102.028 100.764C93.369 102.066 86.722 109.518 86.722 118.541C86.722 125.175 90.321 130.956 95.664 134.078C92.048 136.145 89.605 140.031 89.605 144.494C89.605 146.461 90.094 148.307 90.932 149.943C92.847 149.334 94.884 149 97 149C103.847 149 109.885 152.445 113.49 157.691C123.729 153.821 131.296 144.511 132.662 133.282C135.895 135.015 139.588 136 143.512 136C152.891 136 160.953 130.383 164.533 122.332C168.565 126.152 174.007 128.5 180 128.5C185.993 128.5 191.435 126.152 195.467 122.332C199.047 130.383 207.109 136 216.488 136C220.412 136 224.105 135.015 227.338 133.282C228.704 144.511 236.271 153.821 246.51 157.691C250.115 152.445 256.153 149 263 149Z" fill="#00004D"/>
</svg>
