<svg width="320" height="140" viewBox="0 0 320 140" fill="none" xmlns="http://www.w3.org/2000/svg">
<path fill-rule="evenodd" clip-rule="evenodd" d="M320 110.24L290.963 68.235C280.352 52.885 264.707 41.726 246.736 36.692L244.525 36.072L235.581 18.712C233.379 14.437 229.711 11.099 225.248 9.30897L205 1.18597V25.24C204.997 25.246 204.996 25.25 204.993 25.256L160.256 69.994C160.17 69.994 160.086 70 160 70L115 25V0.935974L94.752 9.05997C90.289 10.85 86.621 14.188 84.419 18.462L75.325 36.114L73.263 36.692C55.293 41.726 39.648 52.885 29.036 68.235L0 110.24V140H320V110.24Z" fill="#80C43B"/>
<path d="M75.3252 36.1141L160 85.1231L221.291 49.8291" stroke="#00004D" stroke-width="2" stroke-linecap="round" stroke-linejoin="round"/>
<path fill-rule="evenodd" clip-rule="evenodd" d="M137 125.123C135.343 125.123 134 123.779 134 122.123V70.1509L140 73.5469V122.123C140 123.779 138.657 125.123 137 125.123Z" fill="#00004D"/>
<path fill-rule="evenodd" clip-rule="evenodd" d="M183 104.123C181.343 104.123 180 102.779 180 101.123V73.6059L186 70.1509V101.123C186 102.779 184.657 104.123 183 104.123Z" fill="#00004D"/>
<path d="M107 16.9998L115 24.9998" stroke="#00004D" stroke-width="2" stroke-linecap="round" stroke-linejoin="round"/>
</svg>
