<svg width="320" height="140" viewBox="0 0 320 140" fill="none" xmlns="http://www.w3.org/2000/svg">
<path fill-rule="evenodd" clip-rule="evenodd" d="M320 110.24L290.964 68.2352C280.352 52.8852 264.707 41.7262 246.736 36.6922L210 26.4002V5.00024C210 2.23824 207.762 0.000244141 205 0.000244141V5.00124C192.465 14.4172 176.885 20.0002 160 20.0002C143.115 20.0002 127.535 14.4172 115 5.00124V0.000244141C112.238 0.000244141 110 2.23824 110 5.00024V26.4002L73.264 36.6922C55.293 41.7262 39.648 52.8852 29.036 68.2352L0 110.239V140H320V110.24Z" fill="#80C43B"/>
<path d="M186.458 40.7011C178.229 43.8041 169.313 45.5011 160 45.5011C140.79 45.5011 123.266 38.2781 109.997 26.4001" stroke="#00004D" stroke-width="2" stroke-linecap="round" stroke-linejoin="round"/>
</svg>
