<svg width="360" height="390" viewBox="0 0 360 390" fill="none" xmlns="http://www.w3.org/2000/svg">
<path fill-rule="evenodd" clip-rule="evenodd" d="M215.924 67.8308L193.949 59.6538C192.003 58.9308 190.013 58.3718 188 57.9618V57.7628C188 55.2118 185.932 53.1428 183.381 53.1428H176.619C174.069 53.1428 172 55.2118 172 57.7628V57.9618C169.987 58.3718 167.997 58.9308 166.051 59.6538L144.076 67.8308C120.583 76.5728 105 98.9978 105 124.064V140.999L180 130.999L255 140.999V124.064C255 98.9978 239.417 76.5728 215.924 67.8308Z" fill="#2384F5"/>
<path d="M180.05 59.1433C180.05 59.1433 134.868 70.2093 134.868 130.965" stroke="#00004D" stroke-width="2" stroke-linecap="round" stroke-linejoin="round"/>
<path d="M180.05 59.1433C180.05 59.1433 200.366 64.1193 213.752 85.7173" stroke="#00004D" stroke-width="2" stroke-linecap="round" stroke-linejoin="round"/>
<path fill-rule="evenodd" clip-rule="evenodd" d="M105.04 140.974C116.092 134.15 128.16 129.086 140.899 125.657C153.637 122.255 166.931 120.739 180 120.743C193.069 120.739 206.363 122.255 219.101 125.657C231.84 129.086 243.908 134.15 254.96 140.974C256.406 141.868 256.855 143.765 255.962 145.212C255.331 146.234 254.199 146.758 253.08 146.662L253.041 146.659C246.63 146.104 240.414 145.211 234.259 144.452C228.11 143.665 222.055 142.926 216.034 142.368C204.008 141.195 192.101 140.744 180 140.743C167.899 140.744 155.992 141.195 143.966 142.368C137.945 142.926 131.89 143.665 125.741 144.452C119.586 145.211 113.37 146.104 106.959 146.659L106.924 146.662C105.229 146.809 103.737 145.554 103.591 143.86C103.487 142.663 104.086 141.567 105.04 140.974Z" fill="#000066"/>
</svg>
