<svg width="360" height="390" viewBox="0 0 360 390" fill="none" xmlns="http://www.w3.org/2000/svg">
<path fill-rule="evenodd" clip-rule="evenodd" d="M240.152 94.1205L229.886 72.7085C223.233 58.8295 209.208 49.9995 193.817 49.9995H166.182C150.792 49.9995 136.766 58.8295 130.113 72.7085L119.848 94.1205C61.2954 104.521 20.0004 129.65 20.0004 159C20.0004 187.602 59.2144 212.192 115.399 223.056C109.181 212.514 105.451 200.328 105.058 187.296C102.591 188.386 99.8694 189.001 97.0004 189.001C85.9544 189.001 77.0004 180.046 77.0004 169C77.0004 157.955 85.9544 149 97.0004 149C99.8464 149 102.548 149.604 105 150.676V147C105 131.069 138.578 118.153 180 118.153C221.421 118.153 255 131.069 255 147V150.676C257.451 149.604 260.153 149 263 149C274.046 149 283 157.955 283 169C283 180.046 274.046 189.001 263 189.001C260.131 189.001 257.408 188.386 254.941 187.296C254.548 200.328 250.818 212.514 244.599 223.056C300.785 212.192 340 187.602 340 159C340 129.65 298.705 104.521 240.152 94.1205Z" fill="#844123"/>
<path d="M119.847 94.1156C138.417 90.8166 158.723 89.0006 180 89.0006C193.452 89.0006 206.516 89.7256 219 91.0946" stroke="#00004D" stroke-width="2" stroke-linecap="round" stroke-linejoin="round"/>
</svg>
