<svg width="360" height="390" viewBox="0 0 360 390" fill="none" xmlns="http://www.w3.org/2000/svg">
<path fill-rule="evenodd" clip-rule="evenodd" d="M259.641 134.799H100.359L120.359 87.9996H239.641L259.641 134.799Z" fill="#000066"/>
<path fill-rule="evenodd" clip-rule="evenodd" d="M250 190C250 228.659 218.66 260 180 260C141.34 260 110 228.659 110 190V159.999C110 121.34 141.34 89.9998 180 89.9998C218.66 89.9998 250 121.34 250 159.999V190ZM283 169C283 123.673 246.936 65.9998 180 65.9998C113.064 65.9998 76.9999 123.673 76.9999 169C76.9999 273.22 62.4189 303.301 62.4189 303.301L83.4919 317.321C116.923 339.565 158.956 339.708 191.817 320.633L217.591 356.523L297.726 303.427C297.726 303.427 283 282.454 283 169Z" fill="#2384F5"/>
<path d="M236.568 265.901C222.091 280.379 202.091 289.333 180 289.333C135.817 289.333 100 253.515 100 209.333V171.666C100 127.483 135.817 91.6661 180 91.6661" stroke="#00004D" stroke-width="2" stroke-linecap="round" stroke-linejoin="round"/>
<path d="M191.817 320.633C202.866 314.219 212.879 305.632 221.177 294.983" stroke="#00004D" stroke-width="2" stroke-linecap="round" stroke-linejoin="round"/>
</svg>
