<svg width="360" height="390" viewBox="0 0 360 390" fill="none" xmlns="http://www.w3.org/2000/svg">
<path fill-rule="evenodd" clip-rule="evenodd" d="M180 125.347L233.153 156.284C246.68 164.157 254.145 178.626 254.145 194.277V196.278C269.608 196.278 283 183.742 283 168.278V139.672C283 120.734 274.229 102.862 259.246 91.2775L228.937 67.8405C200.118 45.5555 159.882 45.5555 131.063 67.8405L100.754 91.2775C85.771 102.862 77 120.734 77 139.672V168.278C77 183.742 90.355 196.278 105.819 196.278V194.277C105.819 178.626 113.32 164.157 126.847 156.284L180 125.347Z" fill="#2384F5"/>
<path d="M180 125.347L238.773 91.1394" stroke="#00004D" stroke-width="2" stroke-linecap="round" stroke-linejoin="round"/>
<path d="M165.529 84.3417C165.529 84.3417 95.1822 144.101 85.6592 152.268C80.7102 156.512 78.0002 161.255 78.0002 167.627" stroke="#00004D" stroke-width="2" stroke-linecap="round" stroke-linejoin="round"/>
<path d="M217.229 103.68C217.229 103.68 264.817 144.101 274.34 152.268C279.29 156.512 281.999 161.255 281.999 167.627" stroke="#00004D" stroke-width="2" stroke-linecap="round" stroke-linejoin="round"/>
</svg>
