<svg width="360" height="390" viewBox="0 0 360 390" fill="none" xmlns="http://www.w3.org/2000/svg">
<path fill-rule="evenodd" clip-rule="evenodd" d="M259 121.161C258.523 114.937 254.105 108.62 246.001 103.2C238.463 73.8559 211.832 52.1689 180.137 52.1689C148.52 52.1689 121.947 73.7489 114.332 102.981C106.017 108.448 101.483 114.853 101 121.161C100.403 128.95 99.152 142.054 98.47 149.074C101.205 149.273 103.783 150.017 106.104 151.206C110.661 145.661 130.189 126.222 180 126.222C229.811 126.222 249.339 145.661 253.896 151.207C256.216 150.017 258.795 149.273 261.53 149.074C260.848 142.054 259.597 128.95 259 121.161Z" fill="#FB344F"/>
<path d="M114.333 102.964C127.294 94.4487 149.475 88.2217 180 88.2217C192.985 88.2217 204.461 89.3487 214.359 91.2997" stroke="#000066" stroke-width="2" stroke-linecap="round" stroke-linejoin="round"/>
</svg>
