<svg width="160" height="80" viewBox="0 0 160 80" fill="none" xmlns="http://www.w3.org/2000/svg">
<path fill-rule="evenodd" clip-rule="evenodd" d="M113 55.442C103.074 55.442 95 47.368 95 37.442C95 25.019 107.588 23.677 113 23.677C118.412 23.677 131 25.019 131 37.442C131 47.368 122.926 55.442 113 55.442ZM47 55.442C37.074 55.442 29 47.368 29 37.442C29 25.019 41.588 23.677 47 23.677C52.412 23.677 65 25.019 65 37.442C65 47.368 56.926 55.442 47 55.442ZM141 26.303H133.105L127.708 22.106C125.953 20.741 123.793 20 121.569 20H104.144C101.773 20 99.48 20.841 97.673 22.376L90 28.887L80.928 24.136C80.347 23.833 79.653 23.833 79.072 24.136L70 28.887L62.327 22.376C60.52 20.841 58.227 20 55.856 20H38.431C36.207 20 34.047 20.741 32.292 22.106L26.895 26.303H19C17.896 26.303 17 27.199 17 28.303V30.139C17 31.244 17.896 32.139 19 32.139H21C22.657 32.139 24 33.482 24 35.139V36.115C24 48.275 33.265 58.678 45.396 59.505C55.969 60.226 65.167 53.755 68.583 44.507L68.584 44.509L72.047 36.413C73.409 33.229 76.537 31.165 80 31.165C83.463 31.165 86.591 33.229 87.953 36.413L91.416 44.509L91.417 44.507C94.833 53.756 104.032 60.226 114.604 59.505C126.735 58.677 136 48.275 136 36.115V35.139C136 33.482 137.343 32.139 139 32.139H141C142.104 32.139 143 31.244 143 30.139V28.303C143 27.199 142.104 26.303 141 26.303Z" fill="#000066"/>
</svg>
