<svg width="160" height="80" viewBox="0 0 160 80" fill="none" xmlns="http://www.w3.org/2000/svg">
  <path fill-rule="evenodd" clip-rule="evenodd" d="M138 40.0003C138 52.7023 127.702 63.0003 115 63.0003C102.298 63.0003 92 52.7023 92 40.0003C92 27.2973 102.298 17.0003 115 17.0003C127.702 17.0003 138 27.2973 138 40.0003Z" stroke="#00004D" stroke-width="4" stroke-linecap="round" stroke-linejoin="round"/>
  <path fill-rule="evenodd" clip-rule="evenodd" d="M22 40.0003C22 52.7023 32.297 63.0003 45 63.0003C57.703 63.0003 68 52.7023 68 40.0003C68 27.2973 57.703 17.0003 45 17.0003C32.297 17.0003 22 27.2973 22 40.0003Z" stroke="#00004D" stroke-width="4" stroke-linecap="round" stroke-linejoin="round"/>
  <path d="M66.5747 32.0179C68.2897 26.2259 73.6517 21.9999 79.9997 21.9999C86.3487 21.9999 91.7097 26.2259 93.4257 32.0179" stroke="#00004D" stroke-width="4" stroke-linecap="round" stroke-linejoin="round"/>
  <circle cx="40" cy="40" r="22" fill="#FFD700"/>
  <circle cx="120" cy="40" r="22" fill="#FFD700"/>
  <line x1="60" y1="40" x2="100" y2="40" stroke="#00004D" stroke-width="4" stroke-linecap="round"/>
  <line x1="76" y1="36" x2="76" y2="44" stroke="#00004D" stroke-width="4" stroke-linecap="round"/>
  <line x1="84" y1="36" x2="84" y2="44" stroke="#00004D" stroke-width="4" stroke-linecap="round"/>
  <line x1="92" y1="36" x2="92" y2="44" stroke="#00004D" stroke-width="4" stroke-linecap="round"/>
  <line x1="108" y1="36" x2="108" y2="44" stroke="#00004D" stroke-width="4" stroke-linecap="round"/>
  <line x1="116" y1="36" x2="116" y2="44" stroke="#00004D" stroke-width="4" stroke-linecap="round"/>
  <line x1="124" y1="36" x2="124" y2="44" stroke="#00004D" stroke-width="4" stroke-linecap="round"/>
</svg>
