<svg width="160" height="80" viewBox="0 0 160 80" fill="none" xmlns="http://www.w3.org/2000/svg">
<path fill-rule="evenodd" clip-rule="evenodd" d="M128.029 17H98.029C93.646 17 89.931 19.824 88.581 23.748C87.3 22.08 85.294 21 83.029 21H76.5C74.236 21 72.228 22.08 70.949 23.748C69.597 19.824 65.883 17 61.5 17H31.5C25.977 17 21.5 21.478 21.5 27V34C21.5 47.808 32.693 59 46.5 59C60.307 59 71.5 47.808 71.5 34C71.5 30.134 74.634 27 78.5 27H81.029C84.895 27 88.029 30.134 88.029 34C88.029 47.808 99.221 59 113.029 59C126.836 59 138.029 47.808 138.029 34V27C138.029 21.478 133.551 17 128.029 17Z" fill="#000066"/>
</svg>
