<svg width="320" height="320" viewBox="0 0 320 320" fill="none" xmlns="http://www.w3.org/2000/svg">
<path fill-rule="evenodd" clip-rule="evenodd" d="M290.963 248.235C280.351 232.884 264.706 221.726 246.736 216.692L204.999 205V175.001C222.643 161.747 234.23 140.89 234.942 117.297C237.408 118.384 240.13 119 243 119C254.045 119 263 110.046 263 99C263 87.954 254.045 79 243 79C240.153 79 237.451 79.603 235 80.675V75C235 33.578 201.421 0 160 0H159.999C118.578 0 85 33.578 85 75V80.675C82.548 79.603 79.846 79 77 79C65.954 79 57 87.954 57 99C57 110.046 65.954 119 77 119C79.869 119 82.591 118.385 85.058 117.297C85.769 140.89 97.356 161.747 114.999 175.001V205L73.263 216.692C55.293 221.726 39.648 232.884 29.036 248.235L0 290.24V320H320V290.24L290.963 248.235Z" fill="#844123"/>
<path fill-rule="evenodd" clip-rule="evenodd" d="M159.999 190C150.751 190 141.899 188.316 133.719 185.255C145.353 192.687 159.169 197 173.999 197C185.059 197 195.548 194.587 204.999 190.29V175.001C192.464 184.417 176.884 190 159.999 190Z" fill="#702A0F"/>
<path d="M87.6086 101.918C87.8636 100.989 88.0006 100.01 88.0006 99.0005C88.0006 92.9255 83.0756 88.0005 77.0006 88.0005C75.4816 88.0005 74.0346 88.3085 72.7186 88.8645" stroke="#00004D" stroke-width="2" stroke-linecap="round" stroke-linejoin="round"/>
<path d="M232.391 101.918C232.136 100.989 232 100.01 232 99.0005C232 92.9255 236.925 88.0005 243 88.0005C244.518 88.0005 245.965 88.3085 247.282 88.8645" stroke="#00004D" stroke-width="2" stroke-linecap="round" stroke-linejoin="round"/>
</svg>
