<svg width="100" height="40" viewBox="0 0 100 40" fill="none" xmlns="http://www.w3.org/2000/svg">
<path fill-rule="evenodd" clip-rule="evenodd" d="M83.0001 23.9285C85.5411 23.9285 87.8951 24.7235 89.8341 26.0715C90.5691 24.8625 91.0001 23.4485 91.0001 21.9285C91.0001 17.5105 87.4181 13.9285 83.0001 13.9285C78.5821 13.9285 75.0001 17.5105 75.0001 21.9285C75.0001 23.4485 75.4311 24.8625 76.1661 26.0715C78.1051 24.7235 80.4591 23.9285 83.0001 23.9285Z" fill="#00004D"/>
<path fill-rule="evenodd" clip-rule="evenodd" d="M17.0001 23.9285C19.5411 23.9285 21.8951 24.7235 23.8341 26.0715C24.5691 24.8625 25.0001 23.4485 25.0001 21.9285C25.0001 17.5105 21.4181 13.9285 17.0001 13.9285C12.5821 13.9285 9.00009 17.5105 9.00009 21.9285C9.00009 23.4485 9.43109 24.8625 10.1661 26.0715C12.1051 24.7235 14.4591 23.9285 17.0001 23.9285Z" fill="#00004D"/>
</svg>
